<?xml version="1.0" encoding="UTF-8" standalone="no"?>
<svg
   xmlns:dc="http://purl.org/dc/elements/1.1/"
   xmlns:cc="http://creativecommons.org/ns#"
   xmlns:rdf="http://www.w3.org/1999/02/22-rdf-syntax-ns#"
   xmlns:svg="http://www.w3.org/2000/svg"
   xmlns="http://www.w3.org/2000/svg"
   xmlns:xlink="http://www.w3.org/1999/xlink"
   xmlns:sodipodi="http://sodipodi.sourceforge.net/DTD/sodipodi-0.dtd"
   xmlns:inkscape="http://www.inkscape.org/namespaces/inkscape"
   id="svg2"
   viewBox="0 0 197.84 226.58"
   version="1.1"
   inkscape:version="0.48.4 r9939"
   width="100%"
   height="100%"
   sodipodi:docname="balde-logo.svg">
  <sodipodi:namedview
     pagecolor="#ffffff"
     bordercolor="#666666"
     borderopacity="1"
     objecttolerance="10"
     gridtolerance="10"
     guidetolerance="10"
     inkscape:pageopacity="0"
     inkscape:pageshadow="2"
     inkscape:window-width="1918"
     inkscape:window-height="1059"
     id="namedview3137"
     showgrid="false"
     inkscape:zoom="1.9286786"
     inkscape:cx="53.292906"
     inkscape:cy="134.02959"
     inkscape:window-x="1"
     inkscape:window-y="20"
     inkscape:window-maximized="0"
     inkscape:current-layer="svg2" />
  <defs
     id="defs6">
    <linearGradient
       id="linearGradient3909">
      <stop
         style="stop-color:#ff8b3e;stop-opacity:1;"
         offset="0"
         id="stop3911" />
      <stop
         style="stop-color:#b94a00;stop-opacity:0.93103451;"
         offset="1"
         id="stop3913" />
    </linearGradient>
    <filter
       id="filter6346"
       color-interpolation-filters="sRGB">
      <feGaussianBlur
         id="feGaussianBlur6348"
         stdDeviation="0.42228346" />
    </filter>
    <filter
       id="filter6424"
       color-interpolation-filters="sRGB">
      <feGaussianBlur
         id="feGaussianBlur6426"
         stdDeviation="2.1473297" />
    </filter>
    <filter
       id="filter6539"
       width="1.2884"
       y="-.028792"
       x="-.14421"
       height="1.0576"
       color-interpolation-filters="sRGB">
      <feGaussianBlur
         id="feGaussianBlur6541"
         stdDeviation="1.5025726" />
    </filter>
    <filter
       id="filter6553"
       width="1.2344"
       y="-.04032"
       x="-.11721"
       height="1.0806"
       color-interpolation-filters="sRGB">
      <feGaussianBlur
         id="feGaussianBlur6555"
         stdDeviation="2.1" />
    </filter>
    <linearGradient
       id="linearGradient4797"
       y2="308.85999"
       gradientUnits="userSpaceOnUse"
       y1="308.85999"
       x2="603.01001"
       x1="443.98999">
      <stop
         id="stop6707"
         stop-color="#d6a910"
         offset="0" />
      <stop
         id="stop6709"
         stop-color="#d19002"
         offset="1" />
    </linearGradient>
    <linearGradient
       id="linearGradient5360"
       x1="762"
       gradientUnits="userSpaceOnUse"
       y1="493"
       gradientTransform="matrix(0.86292556,0,0,0.86292556,-602.1426,-300.86803)"
       x2="788"
       y2="398">
      <stop
         id="stop6410"
         stop-color="#dbddd8"
         offset="0" />
      <stop
         id="stop6434"
         stop-color="#e8e8e6"
         offset=".11576" />
      <stop
         id="stop6412"
         stop-color="#d3d7cf"
         offset="1" />
    </linearGradient>
    <linearGradient
       id="linearGradient5363"
       x1="761.41"
       gradientUnits="userSpaceOnUse"
       y1="503.16"
       gradientTransform="translate(-710.41,-354.01)"
       x2="742.05"
       y2="569.16">
      <stop
         id="stop4789"
         stop-color="#e7e7e5"
         offset="0" />
      <stop
         id="stop4791"
         stop-color="#e7e7e5"
         stop-opacity=".9"
         offset="1" />
    </linearGradient>
    <linearGradient
       id="linearGradient5366"
       x1="719"
       gradientUnits="userSpaceOnUse"
       y1="523"
       gradientTransform="matrix(0.86292556,0,0,0.86292556,-602.1426,-300.86803)"
       x2="788.36"
       y2="541.58">
      <stop
         id="stop4783"
         stop-opacity=".91304"
         offset="0" />
      <stop
         id="stop4785"
         stop-opacity=".46862"
         offset="1" />
    </linearGradient>
    <linearGradient
       id="linearGradient5369"
       x1="766.26"
       gradientUnits="userSpaceOnUse"
       y1="489.56"
       gradientTransform="matrix(0.86292556,0,0,0.86292556,-602.1426,-300.86803)"
       x2="745.21"
       y2="568.12">
      <stop
         id="stop6400"
         stop-color="#dcdfd9"
         offset="0" />
      <stop
         id="stop6402"
         stop-color="#dee0db"
         offset="1" />
    </linearGradient>
    <linearGradient
       id="linearGradient5374"
       x1="893"
       gradientUnits="userSpaceOnUse"
       y1="508"
       gradientTransform="matrix(0.86292556,0,0,0.86292556,-602.1426,-300.86803)"
       x2="893"
       y2="427.38">
      <stop
         id="stop6715"
         stop-color="#e5e6e3"
         offset="0" />
      <stop
         id="stop6717"
         stop-color="#c7cac3"
         offset="1" />
    </linearGradient>
    <linearGradient
       id="linearGradient5379"
       x1="728.25"
       gradientUnits="userSpaceOnUse"
       y1="402.59"
       gradientTransform="translate(-710.41,-354.01)"
       x2="908.25"
       y2="402.59"
       xlink:href="#linearGradient5382">
      <stop
         id="stop6699"
         stop-color="#fcd54a"
         offset="0" />
      <stop
         id="stop6701"
         stop-color="#fac404"
         offset="1" />
    </linearGradient>
    <linearGradient
       id="linearGradient5382"
       x1="728"
       gradientUnits="userSpaceOnUse"
       y1="416"
       gradientTransform="translate(-710.41 -354.01)"
       x2="909.01"
       y2="416">
      <stop
         id="stop6651"
         stop-color="#f9d13f"
         offset="0" />
      <stop
         id="stop6653"
         stop-color="#e9b807"
         offset="1" />
    </linearGradient>
    <linearGradient
       id="linearGradient5385"
       x1="497.51999"
       gradientUnits="userSpaceOnUse"
       y1="377.10001"
       gradientTransform="matrix(1.0633,0,0,1.0724,-504.61,-276.4)"
       x2="658.53003"
       y2="377.10001">
      <stop
         id="stop6559"
         stop-color="#f0c83c"
         offset="0"
         style="stop-color:#a34100;stop-opacity:1;" />
      <stop
         id="stop6561"
         stop-color="#d4a710"
         offset="1"
         style="stop-color:#ab4500;stop-opacity:1;" />
    </linearGradient>
    <linearGradient
       inkscape:collect="always"
       xlink:href="#linearGradient3909"
       id="linearGradient3915"
       x1="23.84"
       y1="142.58525"
       x2="191.8405"
       y2="142.58525"
       gradientUnits="userSpaceOnUse"
       gradientTransform="matrix(0.86292556,0,0,0.86292556,10.88834,4.6162417)" />
    <radialGradient
       inkscape:collect="always"
       xlink:href="#linearGradient5366"
       id="radialGradient3925"
       cx="61.700275"
       cy="176.2865"
       fx="61.700275"
       fy="176.2865"
       r="108.88284"
       gradientTransform="matrix(1,0,0,0.42380951,0,101.5746)"
       gradientUnits="userSpaceOnUse" />
    <filter
       inkscape:collect="always"
       id="filter3971"
       x="-0.077111878"
       width="1.1542238"
       y="-0.18194938"
       height="1.3638988">
      <feGaussianBlur
         inkscape:collect="always"
         stdDeviation="6.9968004"
         id="feGaussianBlur3973" />
    </filter>
  </defs>
  <path
     sodipodi:type="arc"
     style="fill:url(#radialGradient3925);fill-opacity:1;filter:url(#filter3971)"
     id="path3917"
     sodipodi:cx="61.700275"
     sodipodi:cy="176.2865"
     sodipodi:rx="108.88284"
     sodipodi:ry="46.145584"
     d="m 170.58312,176.2865 a 108.88284,46.145584 0 1 1 -217.765688,0 108.88284,46.145584 0 1 1 217.765688,0 z"
     transform="matrix(0.7905167,0,0,0.70564651,44.553049,59.667888)" />
  <path
     id="path5729"
     d="m 31.460485,55.169872 22.948643,136.937658 0.485395,0.027 c 1.695045,4.46901 22.936562,8.00899 48.917527,8.00899 25.98097,0 47.24863,-3.54007 48.94428,-8.00899 l 0.75506,-0.027 22.92103,-136.937658 -72.48575,5.312343 -72.485753,-5.312343 z"
     style="fill:url(#linearGradient3915);fill-opacity:1"
     inkscape:connector-curvature="0" />
  <path
     id="path5735"
     d="m 103.94624,40.500138 c -31.489024,0 -58.569354,3.115247 -70.759903,7.604531 v -1.564052 h -6.903405 v 6.903404 c 0,7.148735 34.770723,12.943884 77.663308,12.943884 42.89258,0 77.6633,-5.795149 77.6633,-12.943884 v -6.903404 h -6.90341 v 1.564052 C 162.51041,43.617715 135.4249,40.500138 103.94624,40.500138 z"
     style="fill:#ff822f;fill-opacity:1"
     inkscape:connector-curvature="0" />
  <path
     id="path5737"
     d="m 103.94624,33.596733 c -42.892585,0 -77.663308,5.79515 -77.663308,12.943884 0,7.148734 34.770723,12.943883 77.663308,12.943883 42.89258,0 77.6633,-5.795149 77.6633,-12.943883 0,-7.148734 -34.77072,-12.943884 -77.6633,-12.943884 z m 0,2.588777 c 37.17311,0 67.30819,4.636154 67.30819,10.355107 0,5.718953 -30.13508,10.355107 -67.30819,10.355107 -37.173115,0 -67.308201,-4.636154 -67.308201,-10.355107 0,-5.718953 30.135086,-10.355107 67.308201,-10.355107 z"
     style="fill:#ff6600;fill-opacity:1"
     inkscape:connector-curvature="0" />
  <path
     id="path5745"
     d="m 57.710681,73.132531 a 6.9034045,6.9034045 0 0 1 -13.806809,0 6.9034045,6.9034045 0 1 1 13.806809,0 z"
     inkscape:connector-curvature="0"
     style="fill:#eeeeec" />
  <path
     id="path5747"
     d="m 51.019556,79.607924 c 0,0 16.40853,38.816986 55.658704,58.678946 39.25017,19.86195 58.67894,-0.86293 58.67894,-0.86293 0,0 -26.31923,5.17755 -52.207,-9.49218 C 87.26243,113.26202 57.060035,73.567445 57.060035,73.567445"
     inkscape:connector-curvature="0"
     style="fill:#eeeeec" />
  <path
     id="path5749"
     d="m 171.64681,82.046552 c 0,0 3.20404,9.64233 -0.67913,28.626698 -3.85615,18.85233 -16.71918,28.26081 -16.71918,28.26081 l 10.51734,-0.91686 c 0,0 16.12635,-15.69489 15.69489,-35.97364 -0.43147,-20.278753 -6.21633,-36.089945 -6.21633,-36.089945"
     inkscape:connector-curvature="0"
     style="fill:url(#linearGradient5374)"
     sodipodi:nodetypes="csccsc" />
  <path
     id="path5751"
     d="m 54.464355,72.651018 c 0,0 -1.67304,-5.512109 -5.413391,-3.761924 -3.740351,1.750186 -0.680072,6.54857 -0.680072,6.54857"
     style="fill:#ff6600;fill-opacity:1"
     inkscape:connector-curvature="0" />
  <path
     id="path3018-5"
     transform="matrix(-0.85742873,0,0,0.98623763,552.81423,-258.0583)"
     d="m 602,308.86 a 78.5,10.5 0 1 1 -157,0 78.5,10.5 0 1 1 157,0 z"
     style="fill:#9e3f00;fill-opacity:1;filter:url(#filter6346)"
     inkscape:connector-curvature="0" />
  <path
     id="path5725"
     d="M 67.710262,197.54051 11.6201,182.00785 c 0,0 6.166294,-68.4438 26.750693,-67.30819 11.218033,0.86292 35.379948,8.62925 35.379948,8.62925 0,0 11.630511,1.95798 10.355107,17.25852 -0.862925,10.3551 -16.395586,56.95308 -16.395586,56.95308 z"
     style="fill:url(#linearGradient5369)"
     inkscape:connector-curvature="0" />
  <path
     id="path6543"
     d="M 67.710262,197.54051 11.6201,182.00785 c 0,0 6.166294,-68.4438 26.750693,-67.30819 11.218033,0.86292 35.379948,8.62925 35.379948,8.62925 0,0 11.630511,1.95798 10.355107,17.25852 -0.862925,10.3551 -16.395586,56.95308 -16.395586,56.95308 z"
     style="opacity:0.07999998;fill:url(#linearGradient5366)"
     inkscape:connector-curvature="0" />
  <path
     id="path6384"
     d="M 62.08,220.52 5.154,204.76 c 0,0 10.51,-53.083 19.695,-59.192 14.626,-5.2694 40.629,1.7404 48,13 3.8103,8.8617 -10.768,61.957 -10.768,61.957 z"
     style="fill:url(#linearGradient5363);filter:url(#filter6424)"
     inkscape:connector-curvature="0"
     transform="matrix(0.86292556,0,0,0.86292556,10.88834,4.6162417)" />
  <path
     id="path5723"
     d="m 85.831699,40.486331 -20.18728,80.748259 -0.01553,9.81578 -17.118717,-5.17807 -0.04832,-9.31269 23.563045,-81.25135 z"
     style="fill:url(#linearGradient5360)"
     inkscape:connector-curvature="0" />
  <path
     id="path5719"
     d="m 68.48517,5.7403748 c 0,0 -11.655536,35.8631862 10.247241,38.4813022 21.331519,2.549686 23.972939,-31.82038 23.972939,-31.82038 L 68.48517,5.7405474 z m 8.170869,8.1977922 16.557817,3.209048 c 0,0 -1.28007,16.631164 -11.595995,15.398044 C 71.026313,31.27926 76.656039,13.938858 76.656039,13.938858 z"
     inkscape:connector-curvature="0"
     style="fill:#d3d7cf" />
  <path
     id="path6501"
     d="m 68.48517,5.7403748 c 0,0 -11.655536,35.8631862 10.247241,38.4813022 21.331519,2.549686 23.972939,-31.82038 23.972939,-31.82038 L 68.48517,5.7405474 z m 8.170869,8.1977922 16.557817,3.209048 c 0,0 -1.28007,16.631164 -11.595995,15.398044 C 71.026313,31.27926 76.656039,13.938858 76.656039,13.938858 z"
     inkscape:connector-curvature="0"
     style="fill:#d3d7cf" />
  <path
     id="path6515"
     d="m 104.84,9.4902 c 0,0 -5.7156,35 -20.25,35 -1.5,0 -22.75,90 -22.75,90"
     inkscape:connector-curvature="0"
     transform="matrix(0.86292556,0,0,0.86292556,10.88834,4.6162417)"
     style="opacity:0.4;fill:none;stroke:#000000;stroke-width:1px;filter:url(#filter6553)" />
  <path
     id="path6529"
     d="m 67.09,3.7402 c 0,0 -7.9948,30.128 2.75,35.5 0.5,0.25 -25,92 -25,92"
     inkscape:connector-curvature="0"
     transform="matrix(0.86292556,0,0,0.86292556,10.88834,4.6162417)"
     style="fill:none;stroke:#ffffff;stroke-width:1px;filter:url(#filter6539)" />
  <metadata
     id="metadata3135">
    <rdf:RDF>
      <cc:Work>
        <dc:format>image/svg+xml</dc:format>
        <dc:type
           rdf:resource="http://purl.org/dc/dcmitype/StillImage" />
        <cc:license
           rdf:resource="http://creativecommons.org/licenses/publicdomain/" />
        <dc:publisher>
          <cc:Agent
             rdf:about="http://openclipart.org/">
            <dc:title>Openclipart</dc:title>
          </cc:Agent>
        </dc:publisher>
        <dc:title>Bucket</dc:title>
        <dc:date>2013-01-05T09:26:29</dc:date>
        <dc:description>bucket, clip art, clipart, pail, plastic bucket, shovel, </dc:description>
        <dc:source>http://openclipart.org/detail/174088/bucket-by-mirek2-174088</dc:source>
        <dc:creator>
          <cc:Agent>
            <dc:title>Mirek2</dc:title>
          </cc:Agent>
        </dc:creator>
        <dc:subject>
          <rdf:Bag>
            <rdf:li>bucket</rdf:li>
            <rdf:li>clip art</rdf:li>
            <rdf:li>clipart</rdf:li>
            <rdf:li>pail</rdf:li>
            <rdf:li>plastic bucket</rdf:li>
            <rdf:li>shovel</rdf:li>
          </rdf:Bag>
        </dc:subject>
      </cc:Work>
      <cc:License
         rdf:about="http://creativecommons.org/licenses/publicdomain/">
        <cc:permits
           rdf:resource="http://creativecommons.org/ns#Reproduction" />
        <cc:permits
           rdf:resource="http://creativecommons.org/ns#Distribution" />
        <cc:permits
           rdf:resource="http://creativecommons.org/ns#DerivativeWorks" />
      </cc:License>
    </rdf:RDF>
  </metadata>
</svg>
